# xmcd
#
# Track frame offsets:
#	150
#	16780
#	32760
#	49615
#	66542
#	82025
#	97140
#	111307
#	127702
#	142420
#	159900
#	176252
#	192662
#	204720
#	219877
#	232430
#	248992
#	271192
#	299587
#
# Disc length: 4253 seconds
#
# Revision: 2
# Processed by: cddbd v1.5.2PL0 Copyright (c) Steve Scherf et al.
# Submitted via: audiograbber 1.81.02
#
DISCID=25109b13
DTITLE=Various Artist - CDX Volume 60 - June 1993
DYEAR=1993
DGENRE=Country
TTITLE0=John Michael Montgomery - Beer And Bones
TTITLE1=Hank Williams, Jr. - Both Sides Of Goodbye
TTITLE2=Robert Ellis Orrall - Every Day When I Get Home
TTITLE3=Shawn Camp - Fallin' Never Felt So Good
TTITLE4=Dolly Parton - Full Circle
TTITLE5=Arron Nevelie - The Grand Tour
TTITLE6=Toby Keith - He Ain't Worth Missing
TTITLE7=McBride and The Ride - Hurry Sundown
TTITLE8=Travis Tritt - Looking Out For Number One
TTITLE9=Patty Loveless - Nothin' But The Wheel
TTITLE10=Wynonna - Only Love
TTITLE11=Bellamy Brothers - Rip Off The Knob
TTITLE12=Dean Chance - Standing Up For Freedom
TTITLE13=Sawyer Brown - Thank God For You
TTITLE14=Diamon Rio - This Romeo Ain't Got Julie Yet
TTITLE15=Ronnie Milsap - True Believer
TTITLE16=Ronnie Milsap - True Believer (Album version)
TTITLE17=Bellamy Bros - Rip Off The Knob (Dance Trax)
TTITLE18=Pam Tillis - Cleopatra Queen Of Denial (Club Mix)
EXTD=
EXTT0=
EXTT1=
EXTT2=
EXTT3=
EXTT4=
EXTT5=
EXTT6=
EXTT7=
EXTT8=
EXTT9=
EXTT10=
EXTT11=
EXTT12=
EXTT13=
EXTT14=
EXTT15=
EXTT16=
EXTT17=
EXTT18=
PLAYORDER=
